<svg width="616" height="424" viewBox="0 0 616 424" xmlns="http://www.w3.org/2000/svg"><title>Dark Code Editor Window</title><g fill="none" fill-rule="evenodd"><rect fill="#353B46" y="16" width="616" height="408" rx="5"/><path d="M5.004 0C2.24 0 0 2.23 0 4.998V31h616V4.998C616 2.238 613.77 0 610.996 0H5.004z" fill="#EEF1F5"/><g transform="translate(9 9)"><circle fill="#EF534A" cx="5.5" cy="5.5" r="5.5"/><circle fill="#EEC04A" cx="24.5" cy="5.5" r="5.5"/><circle fill="#97D272" cx="43.5" cy="5.5" r="5.5"/></g><text opacity=".85" font-family=".Helvetica Neue DeskInterface" font-size="14" fill="#525355"><tspan x="268.208" y="23">Window Title</tspan></text><text opacity=".8" font-family="Andale Mono" font-size="14" fill="#858585"><tspan x="20.599" y="54">1</tspan> <tspan x="20.599" y="74">2</tspan> <tspan x="20.599" y="94">3</tspan> <tspan x="20.599" y="114">4</tspan> <tspan x="20.599" y="134">5</tspan> <tspan x="20.599" y="154">6</tspan> <tspan x="20.599" y="174">7</tspan> <tspan x="20.599" y="194">8</tspan> <tspan x="20.599" y="214">9</tspan> <tspan x="12.197" y="234">10</tspan></text><text font-family="Andale Mono" font-size="14" fill="#E2E7ED"><tspan x="43" y="54">&amp;lt;!doctype html&amp;gt;</tspan> <tspan x="43" y="74">&amp;lt;html lang=&amp;quot;en&amp;quot;&amp;gt;</tspan> <tspan x="43" y="94">&amp;lt;head&amp;gt;</tspan> <tspan x="43" y="114"> &amp;lt;meta charset=“UTF-8”&amp;gt;</tspan> <tspan x="43" y="134"> &amp;lt;title&amp;gt;Document&amp;lt;/title&amp;gt;</tspan> <tspan x="43" y="154">&amp;lt;/head&amp;gt;</tspan> <tspan x="43" y="174">&amp;lt;body&amp;gt;</tspan> <tspan x="43" y="194">&amp;lt;/body&amp;gt;</tspan> <tspan x="43" y="214">&amp;lt;/html&amp;gt;</tspan></text></g></svg>